<mxfile host="app.diagrams.net" modified="2023-06-28T08:26:09.109Z" agent="Mozilla/5.0 (Windows NT 10.0; Win64; x64) AppleWebKit/537.36 (KHTML, like Gecko) Chrome/114.0.0.0 Safari/537.36" version="21.5.0" etag="GIEMm_wDBdM0auCgNDH6" type="github">
  <diagram name="第 1 页" id="khA9PYQBzt5xeasI5gbh">
    <mxGraphModel>
      <root>
        <mxCell id="0" />
        <mxCell id="1" parent="0" />
      </root>
    </mxGraphModel>
  </diagram>
</mxfile>
